<svg id="Layer_1" data-name="Layer 1" xmlns="http://www.w3.org/2000/svg" viewBox="0 0 1000 1000"><defs><style>.cls-1{fill:#e2c086;}.cls-2,.cls-5{fill:none;}.cls-2{stroke:#a57e4a;stroke-miterlimit:10;stroke-width:3px;}.cls-3{fill:#a57e4a;}.cls-4{fill:#fff;}</style></defs><title>coffee_logo</title><path class="cls-1" d="M86.86,450.87H98.59a4.82,4.82,0,0,1,4.82,4.82v54.23a4.82,4.82,0,0,0,4.82,4.82H125a4.82,4.82,0,0,0,4.82-4.82V455.69a4.82,4.82,0,0,1,4.82-4.82h11.73a4.82,4.82,0,0,1,4.82,4.82V595.15a4.82,4.82,0,0,1-4.82,4.82H134.6a4.82,4.82,0,0,1-4.82-4.82V538.4a4.82,4.82,0,0,0-4.82-4.82H108.22a4.82,4.82,0,0,0-4.82,4.82v56.75A4.82,4.82,0,0,1,98.59,600H86.86A4.82,4.82,0,0,1,82,595.15V455.69A4.82,4.82,0,0,1,86.86,450.87Z"/><path class="cls-1" d="M197.63,450.87h11.73a4.82,4.82,0,0,1,4.82,4.82V595.15a4.82,4.82,0,0,1-4.82,4.82H197.63a4.82,4.82,0,0,1-4.82-4.82V455.69A4.82,4.82,0,0,1,197.63,450.87Z"/><path class="cls-1" d="M320.13,493.8H308.4a4.82,4.82,0,0,1-4.82-4.82h0a22.81,22.81,0,0,0-3.46-12.67Q296.68,471,288.51,471a14,14,0,0,0-7.22,1.68,12.4,12.4,0,0,0-4.4,4.29,18,18,0,0,0-2.2,6.07,40.31,40.31,0,0,0-.63,7.22,74.1,74.1,0,0,0,.31,7.43,13.18,13.18,0,0,0,1.57,5.24,12,12,0,0,0,3.66,3.87,33.36,33.36,0,0,0,6.6,3.35l16.33,6.49A40.62,40.62,0,0,1,314.06,523a26,26,0,0,1,6.81,8.59,36.46,36.46,0,0,1,3.25,11.31,113.28,113.28,0,0,1,.84,14.55,76.75,76.75,0,0,1-1.88,17.48,36.88,36.88,0,0,1-6.18,13.82,29.66,29.66,0,0,1-11.41,9.11q-7.12,3.35-17.38,3.35a38.05,38.05,0,0,1-14.45-2.72,34.4,34.4,0,0,1-19.16-18.64,34.74,34.74,0,0,1-2.83-14v-3.14a4.82,4.82,0,0,1,4.82-4.82H268.2a4.82,4.82,0,0,1,4.82,4.82v1.88a17.44,17.44,0,0,0,3.46,10.57q3.45,4.71,11.62,4.71a18.74,18.74,0,0,0,8.48-1.57,10.8,10.8,0,0,0,4.61-4.4,18.1,18.1,0,0,0,2-7q.42-4.19.42-9.21a90.54,90.54,0,0,0-.42-9.63,15.32,15.32,0,0,0-1.78-6.07,10.89,10.89,0,0,0-3.77-3.77,50.57,50.57,0,0,0-6.39-3.14l-15.29-6.28q-13.82-5.65-18.53-15t-4.71-23.35a54.09,54.09,0,0,1,2.3-15.91,37.08,37.08,0,0,1,6.81-13,32.48,32.48,0,0,1,11.41-8.69,37.57,37.57,0,0,1,16.12-3.25,35.46,35.46,0,0,1,14.55,2.93,36.23,36.23,0,0,1,11.31,7.75,34.46,34.46,0,0,1,7.22,10.78,31.27,31.27,0,0,1,2.51,12.25V489A4.82,4.82,0,0,1,320.13,493.8Z"/><path class="cls-1" d="M371,471H355.94a4.82,4.82,0,0,1-4.82-4.82V455.69a4.82,4.82,0,0,1,4.82-4.82h61.14a4.82,4.82,0,0,1,4.82,4.82v10.47a4.82,4.82,0,0,1-4.82,4.82H402a4.82,4.82,0,0,0-4.82,4.82V595.15a4.82,4.82,0,0,1-4.82,4.82H380.65a4.82,4.82,0,0,1-4.82-4.82V475.79A4.82,4.82,0,0,0,371,471Z"/><path class="cls-1" d="M448.49,486.05a38.11,38.11,0,0,1,3.14-15.91,33.21,33.21,0,0,1,8.27-11.41,35.68,35.68,0,0,1,11.52-6.81,37.16,37.16,0,0,1,25.76,0,35.74,35.74,0,0,1,11.52,6.81A33.24,33.24,0,0,1,517,470.14a38.11,38.11,0,0,1,3.14,15.91v78.73a37.91,37.91,0,0,1-3.14,16,33.44,33.44,0,0,1-8.27,11.31,35.65,35.65,0,0,1-11.52,6.81,37.16,37.16,0,0,1-25.76,0,35.58,35.58,0,0,1-11.52-6.81,33.42,33.42,0,0,1-8.27-11.31,37.91,37.91,0,0,1-3.14-16Zm21.36,78.73q0,7.75,4.29,11.41a15.9,15.9,0,0,0,20.31,0q4.29-3.66,4.29-11.41V486.05q0-7.74-4.29-11.41a15.9,15.9,0,0,0-20.31,0q-4.29,3.67-4.29,11.41Z"/><path class="cls-1" d="M559.89,455.69a4.82,4.82,0,0,1,4.82-4.82h29.53q37.69,0,37.69,43.76,0,13-4.08,22.3A30.34,30.34,0,0,1,616.56,530a4.78,4.78,0,0,0-1.83,5.51l19.65,58.05a4.82,4.82,0,0,1-4.56,6.36H617.45a4.82,4.82,0,0,1-4.6-3.38l-17.78-56.9a4.82,4.82,0,0,0-4.6-3.38h-4.42a4.82,4.82,0,0,0-4.82,4.82v54a4.82,4.82,0,0,1-4.82,4.82H564.7a4.82,4.82,0,0,1-4.82-4.82Zm21.36,57a4.82,4.82,0,0,0,4.82,4.82h7.33a21.49,21.49,0,0,0,9-1.57,11.57,11.57,0,0,0,5.13-4.5,19.18,19.18,0,0,0,2.41-7.22,79.09,79.09,0,0,0,0-19.89,18,18,0,0,0-2.62-7.33,11.86,11.86,0,0,0-5.55-4.5,25.23,25.23,0,0,0-9.42-1.47h-6.28a4.82,4.82,0,0,0-4.82,4.82Z"/><path class="cls-1" d="M675.48,450.87H687.2a4.82,4.82,0,0,1,4.82,4.82V595.15A4.82,4.82,0,0,1,687.2,600H675.48a4.82,4.82,0,0,1-4.82-4.82V455.69A4.82,4.82,0,0,1,675.48,450.87Z"/><path class="cls-1" d="M737.67,450.87H750a4.82,4.82,0,0,1,4.53,3.19l31.1,86.64H786v-85a4.82,4.82,0,0,1,4.82-4.82h11.73a4.82,4.82,0,0,1,4.82,4.82V595.15a4.82,4.82,0,0,1-4.82,4.82H790.66a4.82,4.82,0,0,1-4.53-3.17l-31.51-86.46h-.42v84.81a4.82,4.82,0,0,1-4.82,4.82H737.67a4.82,4.82,0,0,1-4.82-4.82V455.69A4.82,4.82,0,0,1,737.67,450.87Z"/><path class="cls-1" d="M846.34,486.05a38.11,38.11,0,0,1,3.14-15.91,33.21,33.21,0,0,1,8.27-11.41,35.68,35.68,0,0,1,11.52-6.81,37.16,37.16,0,0,1,25.76,0,35.74,35.74,0,0,1,11.52,6.81,33.24,33.24,0,0,1,8.27,11.41A38.11,38.11,0,0,1,918,486.05v78.73a37.91,37.91,0,0,1-3.14,16,33.44,33.44,0,0,1-8.27,11.31A35.65,35.65,0,0,1,895,598.92a37.16,37.16,0,0,1-25.76,0,35.58,35.58,0,0,1-11.52-6.81,33.42,33.42,0,0,1-8.27-11.31,37.91,37.91,0,0,1-3.14-16Zm21.36,78.73q0,7.75,4.29,11.41a15.9,15.9,0,0,0,20.31,0q4.29-3.66,4.29-11.41V486.05q0-7.74-4.29-11.41a15.9,15.9,0,0,0-20.31,0q-4.29,3.67-4.29,11.41Z"/><line class="cls-2" x1="133.34" y1="399.75" x2="886.34" y2="399.75"/><line class="cls-2" x1="227.59" y1="712.76" x2="792.09" y2="712.76"/><polygon class="cls-3" points="130.34 655 272.34 650.75 272.34 659.25 130.34 655"/><polygon class="cls-3" points="889.34 655 747.34 659.25 747.34 650.75 889.34 655"/><path class="cls-1" d="M509.84,147.25c-44.18,0-80,47.91-80,107s35.82,107,80,107,80-47.91,80-107S554,147.25,509.84,147.25Zm17.93,153.31c-4.78,14.49-14,27.27-23.38,39.71-.57.84-1.17,1.67-1.8,2.48l.12-.25,1.68-2.23c8.16-12,10.08-27.61,12.4-41.29,1.17-6.9,1.14-14.07-1.76-19.84-3.51-7-8.14-11.37-14.23-16.78-15.29-13.6-19.41-34.43-13.53-52.47s20.68-33.37,38.41-44.68l.63-.46c-8.91,10.72-18,21.66-22.9,34.4s-5.16,27.81,3,39c4.34,6,10.72,10.5,15.39,16.28C532.16,267.33,532.83,285.2,527.77,300.56Z"/><path class="cls-1" d="M506.88,331.25c.36-.69.7-1.4,1-2.12L507,331Z"/><path class="cls-4" d="M428.26,319.31l-1.35-.65c.49.26,1,.51,1.48.74Z"/><path class="cls-5" d="M428.26,319.31l-1.35-.65c.49.26,1,.51,1.48.74Z"/><path class="cls-5" d="M592.49,321.4c.5-.23,1-.48,1.48-.74l-1.35.65Z"/><path d="M506.76,335c.38-.71.73-1.44,1.07-2.18l-1,2Z"/><path class="cls-3" d="M424.15,230.59c-26.5-23.93-61.17-30.14-83.52-12.9-26.21,20.22-25.54,65,1.51,100.1s70.23,47.09,96.44,26.86a45.76,45.76,0,0,0,9.72-10.3c-15.86-19.83-25.86-47.72-26.12-78.71A143.46,143.46,0,0,1,424.15,230.59Zm9,105.52,1.83,1.06.17.13c-.67-.38-1.34-.78-2-1.19-10-5.81-20.14-11.86-28.89-20.2-9.28-8.84-16.94-20.83-17.71-32-.35-5,.7-9.65.1-14.73-1.12-9.53-8-19.43-16-26.58s-17.27-12-26.32-16.83l.51.14c13.54,2.9,27.47,9.22,38.34,19.62s18.19,25.24,17,38.17c-.5,5.15-.76,9.23.68,14.77,1.19,4.56,4.38,9.31,8,13.57C416,320.46,423.87,330.24,433.14,336.1Z"/><path class="cls-3" d="M679.19,217.78c-22.31-17.29-57-11.15-83.55,12.72a143.47,143.47,0,0,1,1.91,25.06c-.33,31-10.39,58.86-26.29,78.65a45.76,45.76,0,0,0,9.7,10.32c26.17,20.28,69.37,8.35,96.5-26.66S705.36,238.06,679.19,217.78Zm-24.61,27.94c-8.26,6.31-15.72,15.6-17.88,25.25-1.15,5.15-.74,10-1.65,15.16-2,11.39-10.5,22.72-20.09,30.61-9,7.44-18,12.32-29,17-.66.34-1.32.67-2,1l.17-.11,1.81-.85c9.23-4.82,17.62-13.86,25.26-21.6,3.86-3.91,7.35-8.38,9-12.91,2-5.51,2.22-9.74,2.37-15.1.38-13.46,8.88-27.76,20.12-37.05a69.54,69.54,0,0,1,37.62-15.21l.48-.08C671.91,235.56,662.84,239.41,654.58,245.72Z"/><path class="cls-1" d="M293.32,648a7.72,7.72,0,0,1,.64-3.23,6.73,6.73,0,0,1,1.68-2.32,7.24,7.24,0,0,1,2.34-1.38,7.53,7.53,0,0,1,5.23,0,7.25,7.25,0,0,1,2.34,1.38,6.74,6.74,0,0,1,1.68,2.32,7.73,7.73,0,0,1,.64,3.23v16a7.69,7.69,0,0,1-.64,3.25,6.78,6.78,0,0,1-1.68,2.29,7.21,7.21,0,0,1-2.34,1.38,7.53,7.53,0,0,1-5.23,0,7.21,7.21,0,0,1-2.34-1.38,6.77,6.77,0,0,1-1.68-2.29,7.69,7.69,0,0,1-.64-3.25Zm4.33,16a2.88,2.88,0,0,0,.87,2.32,3.23,3.23,0,0,0,4.12,0,2.88,2.88,0,0,0,.87-2.32V648a2.88,2.88,0,0,0-.87-2.32,3.23,3.23,0,0,0-4.12,0,2.88,2.88,0,0,0-.87,2.32Z"/><path class="cls-1" d="M315.92,640.87h7q7.65,0,7.65,8.88a11.22,11.22,0,0,1-.83,4.53,6.41,6.41,0,0,1-2.91,3l4.67,13.81h-4.59l-4-12.92h-2.59v12.92h-4.33Zm4.33,13.51h2.46a4.37,4.37,0,0,0,1.83-.32,2.35,2.35,0,0,0,1-.91,3.89,3.89,0,0,0,.49-1.47,16,16,0,0,0,0-4,3.65,3.65,0,0,0-.53-1.49,2.41,2.41,0,0,0-1.13-.91,5.13,5.13,0,0,0-1.91-.3h-2.25Z"/><path class="cls-1" d="M338.4,640.87h4.33v30.26H338.4Z"/><path class="cls-1" d="M350.94,648a7.72,7.72,0,0,1,.64-3.23,6.73,6.73,0,0,1,1.68-2.32,7.24,7.24,0,0,1,2.34-1.38,7.53,7.53,0,0,1,5.23,0,7.25,7.25,0,0,1,2.34,1.38,6.74,6.74,0,0,1,1.68,2.32,7.73,7.73,0,0,1,.64,3.23v1.53h-4.33V648a2.88,2.88,0,0,0-.87-2.32,3.23,3.23,0,0,0-4.12,0,2.88,2.88,0,0,0-.87,2.32v16a2.88,2.88,0,0,0,.87,2.32,3.23,3.23,0,0,0,4.12,0,2.88,2.88,0,0,0,.87-2.32v-5.69H357.7v-3.82h7.78V664a7.69,7.69,0,0,1-.64,3.25,6.78,6.78,0,0,1-1.68,2.29,7.21,7.21,0,0,1-2.34,1.38,7.53,7.53,0,0,1-5.23,0,7.21,7.21,0,0,1-2.34-1.38,6.77,6.77,0,0,1-1.68-2.29,7.69,7.69,0,0,1-.64-3.25Z"/><path class="cls-1" d="M373.67,640.87H378v30.26h-4.33Z"/><path class="cls-1" d="M386.29,640.87h4.16L397,659.1h.08V640.87h4.33v30.26h-4.08l-6.63-18.19h-.08v18.19h-4.33Z"/><path class="cls-1" d="M414.38,640.87H418l6.76,30.26h-4.33l-1.27-6.5h-5.91l-1.27,6.5h-4.33Zm1.83,8.71h-.08l-2.12,11h4.33Z"/><path class="cls-1" d="M431.13,640.87h4.33v25.92H444v4.33H431.13Z"/><path class="cls-1" d="M463.25,640.87h12.92v4.08h-8.58v8.88h7.48v4.08h-7.48v8.88h8.58v4.33H463.25Z"/><path class="cls-1" d="M497.25,649.58h-4.33v-1a4.63,4.63,0,0,0-.7-2.57,2.6,2.6,0,0,0-2.36-1.08,2.84,2.84,0,0,0-1.47.34,2.51,2.51,0,0,0-.89.87,3.63,3.63,0,0,0-.45,1.23,8.19,8.19,0,0,0-.13,1.47,14.88,14.88,0,0,0,.06,1.51,2.67,2.67,0,0,0,.32,1.06,2.44,2.44,0,0,0,.74.79,6.81,6.81,0,0,0,1.34.68l3.32,1.32a8.24,8.24,0,0,1,2.34,1.3,5.28,5.28,0,0,1,1.38,1.74,7.42,7.42,0,0,1,.66,2.29,23.11,23.11,0,0,1,.17,3,15.57,15.57,0,0,1-.38,3.55,7.47,7.47,0,0,1-1.25,2.8,6,6,0,0,1-2.32,1.85,8.25,8.25,0,0,1-3.53.68,7.72,7.72,0,0,1-2.93-.55,7,7,0,0,1-3.89-3.78,7,7,0,0,1-.57-2.85v-1.62h4.33v1.36a3.54,3.54,0,0,0,.7,2.15,2.73,2.73,0,0,0,2.36,1,3.79,3.79,0,0,0,1.72-.32,2.19,2.19,0,0,0,.94-.89,3.67,3.67,0,0,0,.4-1.42q.08-.85.08-1.87a18.33,18.33,0,0,0-.08-2,3.09,3.09,0,0,0-.36-1.23,2.2,2.2,0,0,0-.76-.76,10.3,10.3,0,0,0-1.3-.64l-3.1-1.27a6.87,6.87,0,0,1-3.76-3,10.45,10.45,0,0,1-1-4.74,11,11,0,0,1,.47-3.23,7.52,7.52,0,0,1,1.38-2.63,6.59,6.59,0,0,1,2.32-1.76,7.62,7.62,0,0,1,3.27-.66,7.21,7.21,0,0,1,3,.59,7.35,7.35,0,0,1,2.29,1.57,7,7,0,0,1,1.47,2.19,6.33,6.33,0,0,1,.51,2.49Z"/><path class="cls-1" d="M504.73,640.87h6.5a9.67,9.67,0,0,1,3.14.47,6,6,0,0,1,2.46,1.66,6.48,6.48,0,0,1,1.53,2.78,17.41,17.41,0,0,1,.43,4.31,21.42,21.42,0,0,1-.23,3.42,7.21,7.21,0,0,1-1,2.66,6.32,6.32,0,0,1-2.38,2.32,8,8,0,0,1-3.91.83h-2.21v11.81h-4.33Zm4.33,14.36h2.08a4.44,4.44,0,0,0,2-.38,2.44,2.44,0,0,0,1.06-1,4,4,0,0,0,.4-1.59q.06-.93.06-2.08t-.06-2a4.75,4.75,0,0,0-.38-1.66,2.44,2.44,0,0,0-1-1.11,3.87,3.87,0,0,0-2-.4h-2.25Z"/><path class="cls-1" d="M526.27,640.87h7q7.65,0,7.65,8.88a11.22,11.22,0,0,1-.83,4.53,6.4,6.4,0,0,1-2.91,3l4.67,13.81h-4.59l-4-12.92H530.6v12.92h-4.33Zm4.33,13.51h2.46a4.37,4.37,0,0,0,1.83-.32,2.34,2.34,0,0,0,1-.91,3.88,3.88,0,0,0,.49-1.47,16.11,16.11,0,0,0,0-4,3.63,3.63,0,0,0-.53-1.49,2.42,2.42,0,0,0-1.12-.91,5.14,5.14,0,0,0-1.91-.3H530.6Z"/><path class="cls-1" d="M548.62,640.87h12.92v4.08H553v8.88h7.48v4.08H553v8.88h8.58v4.33H548.62Z"/><path class="cls-1" d="M582.62,649.58h-4.33v-1a4.64,4.64,0,0,0-.7-2.57,2.6,2.6,0,0,0-2.36-1.08,2.84,2.84,0,0,0-1.46.34,2.51,2.51,0,0,0-.89.87,3.65,3.65,0,0,0-.45,1.23,8.28,8.28,0,0,0-.13,1.47,14.85,14.85,0,0,0,.06,1.51,2.65,2.65,0,0,0,.32,1.06,2.44,2.44,0,0,0,.74.79,6.78,6.78,0,0,0,1.34.68l3.31,1.32a8.25,8.25,0,0,1,2.34,1.3,5.29,5.29,0,0,1,1.38,1.74,7.42,7.42,0,0,1,.66,2.29,22.93,22.93,0,0,1,.17,3,15.52,15.52,0,0,1-.38,3.55,7.44,7.44,0,0,1-1.25,2.8,6,6,0,0,1-2.31,1.85,8.26,8.26,0,0,1-3.53.68,7.73,7.73,0,0,1-2.93-.55,7,7,0,0,1-3.89-3.78,7,7,0,0,1-.57-2.85v-1.62h4.33v1.36a3.54,3.54,0,0,0,.7,2.15,2.73,2.73,0,0,0,2.36,1,3.79,3.79,0,0,0,1.72-.32,2.19,2.19,0,0,0,.94-.89,3.69,3.69,0,0,0,.4-1.42q.08-.85.09-1.87a18.29,18.29,0,0,0-.09-2,3.08,3.08,0,0,0-.36-1.23,2.2,2.2,0,0,0-.76-.76,10.32,10.32,0,0,0-1.3-.64l-3.1-1.27a6.88,6.88,0,0,1-3.76-3,10.46,10.46,0,0,1-1-4.74,11,11,0,0,1,.47-3.23,7.54,7.54,0,0,1,1.38-2.63,6.59,6.59,0,0,1,2.32-1.76,7.62,7.62,0,0,1,3.27-.66,7.2,7.2,0,0,1,3,.59,7.35,7.35,0,0,1,2.29,1.57,7,7,0,0,1,1.47,2.19,6.35,6.35,0,0,1,.51,2.49Z"/><path class="cls-1" d="M604.12,649.58h-4.34v-1a4.62,4.62,0,0,0-.7-2.57,2.59,2.59,0,0,0-2.36-1.08,2.85,2.85,0,0,0-1.47.34,2.51,2.51,0,0,0-.89.87,3.61,3.61,0,0,0-.45,1.23,8.1,8.1,0,0,0-.13,1.47,14.92,14.92,0,0,0,.06,1.51,2.68,2.68,0,0,0,.32,1.06,2.44,2.44,0,0,0,.74.79,6.84,6.84,0,0,0,1.34.68l3.32,1.32a8.24,8.24,0,0,1,2.34,1.3,5.27,5.27,0,0,1,1.38,1.74,7.42,7.42,0,0,1,.66,2.29,23.29,23.29,0,0,1,.17,3,15.63,15.63,0,0,1-.38,3.55,7.5,7.5,0,0,1-1.25,2.8,6,6,0,0,1-2.32,1.85,8.25,8.25,0,0,1-3.53.68,7.71,7.71,0,0,1-2.93-.55,7,7,0,0,1-3.89-3.78,7,7,0,0,1-.57-2.85v-1.62h4.34v1.36a3.53,3.53,0,0,0,.7,2.15,2.73,2.73,0,0,0,2.36,1,3.79,3.79,0,0,0,1.72-.32,2.18,2.18,0,0,0,.94-.89,3.65,3.65,0,0,0,.4-1.42q.08-.85.08-1.87a18.37,18.37,0,0,0-.08-2,3.11,3.11,0,0,0-.36-1.23,2.21,2.21,0,0,0-.77-.76,10.28,10.28,0,0,0-1.29-.64l-3.1-1.27a6.87,6.87,0,0,1-3.76-3,10.43,10.43,0,0,1-1-4.74,11,11,0,0,1,.47-3.23,7.51,7.51,0,0,1,1.38-2.63,6.58,6.58,0,0,1,2.31-1.76,7.62,7.62,0,0,1,3.27-.66,7.21,7.21,0,0,1,3,.59,7.35,7.35,0,0,1,2.29,1.57,7,7,0,0,1,1.46,2.19,6.31,6.31,0,0,1,.51,2.49Z"/><path class="cls-1" d="M611.73,640.87h4.33v30.26h-4.33Z"/><path class="cls-1" d="M624.26,648a7.75,7.75,0,0,1,.64-3.23,6.73,6.73,0,0,1,1.68-2.32,7.23,7.23,0,0,1,2.34-1.38,7.53,7.53,0,0,1,5.23,0,7.24,7.24,0,0,1,2.34,1.38,6.73,6.73,0,0,1,1.68,2.32,7.75,7.75,0,0,1,.64,3.23v16a7.71,7.71,0,0,1-.64,3.25,6.78,6.78,0,0,1-1.68,2.29,7.21,7.21,0,0,1-2.34,1.38,7.53,7.53,0,0,1-5.23,0,7.19,7.19,0,0,1-2.34-1.38,6.78,6.78,0,0,1-1.68-2.29,7.71,7.71,0,0,1-.64-3.25Zm4.33,16a2.88,2.88,0,0,0,.87,2.32,3.23,3.23,0,0,0,4.12,0,2.88,2.88,0,0,0,.87-2.32V648a2.89,2.89,0,0,0-.87-2.32,3.23,3.23,0,0,0-4.12,0,2.89,2.89,0,0,0-.87,2.32Z"/><path class="cls-1" d="M646.7,640.87h4.16l6.54,18.23h.08V640.87h4.34v30.26h-4.08l-6.63-18.19H651v18.19H646.7Z"/><path class="cls-1" d="M695.91,664.37a6.91,6.91,0,0,1-.53,2.68,7,7,0,0,1-1.47,2.23,7.25,7.25,0,0,1-2.19,1.53,6.41,6.41,0,0,1-2.7.57,9.71,9.71,0,0,1-2.51-.34,6.08,6.08,0,0,1-2.29-1.17,6.3,6.3,0,0,1-1.68-2.19,7.88,7.88,0,0,1-.66-3.44V647.58a7.38,7.38,0,0,1,.51-2.76,6.51,6.51,0,0,1,1.44-2.21,6.73,6.73,0,0,1,2.23-1.47,7.5,7.5,0,0,1,2.87-.53,7.13,7.13,0,0,1,2.76.53,6.61,6.61,0,0,1,2.21,1.49,6.88,6.88,0,0,1,1.47,2.29,7.84,7.84,0,0,1,.53,2.91v1.7h-4.34v-1.44a3.51,3.51,0,0,0-.72-2.21,2.34,2.34,0,0,0-2-.93,2.2,2.2,0,0,0-2.15,1,5.34,5.34,0,0,0-.53,2.53v15.47a4,4,0,0,0,.57,2.21,2.26,2.26,0,0,0,2.06.89,3.14,3.14,0,0,0,.91-.15,2.51,2.51,0,0,0,.89-.49,2.46,2.46,0,0,0,.66-.93,3.79,3.79,0,0,0,.25-1.49V662.5h4.34Z"/><path class="cls-1" d="M703.43,648a7.72,7.72,0,0,1,.64-3.23,6.75,6.75,0,0,1,1.68-2.32,7.25,7.25,0,0,1,2.34-1.38,7.53,7.53,0,0,1,5.23,0,7.27,7.27,0,0,1,2.34,1.38,6.73,6.73,0,0,1,1.68,2.32A7.72,7.72,0,0,1,718,648v16a7.68,7.68,0,0,1-.64,3.25,6.77,6.77,0,0,1-1.68,2.29,7.23,7.23,0,0,1-2.34,1.38,7.53,7.53,0,0,1-5.23,0,7.21,7.21,0,0,1-2.34-1.38,6.8,6.8,0,0,1-1.68-2.29,7.68,7.68,0,0,1-.64-3.25Zm4.33,16a2.88,2.88,0,0,0,.87,2.32,3.22,3.22,0,0,0,4.12,0,2.88,2.88,0,0,0,.87-2.32V648a2.89,2.89,0,0,0-.87-2.32,3.23,3.23,0,0,0-4.12,0,2.88,2.88,0,0,0-.87,2.32Z"/><path class="cls-1" d="M725.78,666.79h4.33v4.33h-4.33Z"/><path class="cls-1" d="M348.68,765l-9.86,22.48q-.69,1.62-1,2.5a4.5,4.5,0,0,0-.31,1.27,1.23,1.23,0,0,0,.15.73.55.55,0,0,0,.46.19,4.83,4.83,0,0,0,3.35-1.81q1.73-1.81,2.27-1.81a1.66,1.66,0,0,1,1.23.81,2.55,2.55,0,0,1,.62,1.12q0,1.46-5.08,5.27t-9.16,3.81a8,8,0,0,1-4.77-1.19,4,4,0,0,1-1.62-3.43,10.06,10.06,0,0,1,.39-3,23.62,23.62,0,0,1,1.16-2.81,36.5,36.5,0,0,1-7,7.7,12.18,12.18,0,0,1-7.74,2.77A7.19,7.19,0,0,1,306,797a9.88,9.88,0,0,1-2.16-6.62q0-8.16,9.52-17.63t17-9.47a6.46,6.46,0,0,1,3.85,1.16,3.68,3.68,0,0,1,1.62,3.16l1.35-3.39q.15-.46,1.93-.69a27.89,27.89,0,0,1,3.62-.23,15.1,15.1,0,0,1,4.27.58Q349,764.44,348.68,765Zm-15,4.85a2.32,2.32,0,0,0-.31-1.35,1.07,1.07,0,0,0-.92-.42q-1.39,0-4.15,2.43a51.59,51.59,0,0,0-5.85,6.2,50.2,50.2,0,0,0-5,7.32q-2.19,3.93-2.19,6.39a2.3,2.3,0,0,0,.54,1.73,2.42,2.42,0,0,0,1.69.5q3,0,9.58-9.28T333.73,769.83Z"/><path class="cls-1" d="M401.73,764.6,393.88,788q-.39,1.08-.69,2.23a7.43,7.43,0,0,0-.31,1.62.94.94,0,0,0,.23.69.74.74,0,0,0,.54.23q1,0,3-2.12t2.43-2.12a1.76,1.76,0,0,1,1.27.81,2.51,2.51,0,0,1,.65,1.12q0,1.31-4.43,5.2t-8.67,3.89a7.47,7.47,0,0,1-5.13-1.73,6,6,0,0,1-2-4.74,8.89,8.89,0,0,1,.12-1.46,12.88,12.88,0,0,1,.5-1.85l1.37-3.85a39.93,39.93,0,0,1-8,9.78q-4.42,3.85-9,3.85a7.58,7.58,0,0,1-4.73-1.69,5.45,5.45,0,0,1-2.19-4.54,14.07,14.07,0,0,1,.42-3.35,27.63,27.63,0,0,1,1.12-3.5l4.77-11.78.89-2.19a4.66,4.66,0,0,0,.42-1.58,1,1,0,0,0-.19-.73.59.59,0,0,0-.42-.19q-1.54,0-3.43,1.92t-2.27,1.93A1.65,1.65,0,0,1,359,773a3,3,0,0,1-.62-1.08q0-1.31,5.24-5.24t9.94-3.93a8,8,0,0,1,4.7,1.12,3.87,3.87,0,0,1,1.54,3.35,13.48,13.48,0,0,1-.31,2.54,14.38,14.38,0,0,1-1,3.08l-5.33,12.55a12.65,12.65,0,0,0-.77,2.23,8.63,8.63,0,0,0-.31,2,3.74,3.74,0,0,0,.27,1.62q.27.54,1.35.54,2.08,0,6.32-6.74a82.86,82.86,0,0,0,6.86-13.28l2.44-7.16q.15-.62,2.55-1a27.48,27.48,0,0,1,3.47-.35,35.93,35.93,0,0,1,3.9.35Q402,764,401.73,764.6Z"/><path class="cls-1" d="M442.62,766.37a3.67,3.67,0,0,1-.57,1.77q-.57,1-1,1l-7.65-.23-6.25,18.56q-.31.92-.54,1.89a7.11,7.11,0,0,0-.23,1.58,2.15,2.15,0,0,0,.15.92c.1.21.33.31.69.31q1.91,0,4.44-2.5t3.06-2.5a2.43,2.43,0,0,1,1.49.85q.88.85.88,1.15,0,.46-1.73,2.23a28.5,28.5,0,0,1-4,3.39,47,47,0,0,1-5.35,3.43,11.12,11.12,0,0,1-5.35,1.35,7.69,7.69,0,0,1-5.27-1.73,6.18,6.18,0,0,1-2-4.89,8.07,8.07,0,0,1,.19-1.92q.19-.77.58-2.08L420.9,769l-5.84.15q-.46,0-.65-.69a4.45,4.45,0,0,1-.19-1.16,3.54,3.54,0,0,1,.58-1.81q.58-1,1-1h6.71l2.84-8.32q.16-.62,3.05-1t3.59-.35a25.7,25.7,0,0,1,3.52.38q2.43.39,2.2.92l-2.84,8.32h7q.46,0,.65.69A4.48,4.48,0,0,1,442.62,766.37Z"/><path class="cls-1" d="M491.05,772.76a28.9,28.9,0,0,1-1.69,9.39,30,30,0,0,1-4.54,8.62,28.28,28.28,0,0,1-6.81,6.35,14.88,14.88,0,0,1-8.28,2.43,4.93,4.93,0,0,1-2.85-1,3.34,3.34,0,0,1-1.46-2.89,3.72,3.72,0,0,1,1.12-2.73,3.81,3.81,0,0,1,2.81-1.12,2.5,2.5,0,0,1,2.43,1.08,1.67,1.67,0,0,0,1.42,1.08q1.85,0,3.85-7.35a49,49,0,0,0,2-12.51,3.55,3.55,0,0,0-.73-2.39,2.55,2.55,0,0,0-2-.85q-3.23,0-7.69,5.7t-8.85,20.79q-.23.62-2.78,1a32.39,32.39,0,0,1-3.32.35,28.38,28.38,0,0,1-3.47-.38q-2.54-.39-2.47-.92L461,755.16a16.28,16.28,0,0,0,.58-2,7.28,7.28,0,0,0,.19-1.5,1.21,1.21,0,0,0-.85-1.19,15.11,15.11,0,0,0-3.23-.66c-.15-.05-.31-.27-.46-.65a2.7,2.7,0,0,1-.23-1,3.15,3.15,0,0,1,.19-1c.13-.38.27-.58.42-.58q3.31-.54,9-1.81a57.32,57.32,0,0,0,8.17-2.27,3.7,3.7,0,0,1,.89-.35,4,4,0,0,1,1-.19.66.66,0,0,1,.58.27,1,1,0,0,1,.19.58,4.49,4.49,0,0,1-.12.92,5.79,5.79,0,0,1-.35,1.08l-8.85,27.76a26.09,26.09,0,0,1,6.69-7.24,13.75,13.75,0,0,1,8.15-2.7,7.4,7.4,0,0,1,5.81,2.46Q491.05,767.68,491.05,772.76Z"/><path class="cls-1" d="M534.25,771.14q0,4.39-5.2,8.58t-14.51,4.2a13.55,13.55,0,0,0-.31,2q-.08,1-.08,1.81a8.46,8.46,0,0,0,1.08,4.47,3.9,3.9,0,0,0,3.62,1.77,9.31,9.31,0,0,0,5.62-1.92,18.53,18.53,0,0,0,4.16-4.08,1.32,1.32,0,0,1,.54.08,1.43,1.43,0,0,1,.35.27l.35.35a4.47,4.47,0,0,1,.62.81q.31.5.15.73a16.14,16.14,0,0,1-6.62,6.58,18.45,18.45,0,0,1-9.39,2.81,13.18,13.18,0,0,1-9-3.16,10,10,0,0,1-3.58-7.85q0-9.86,7.89-17.83t15.13-8q5.08,0,7.16,2.58A9,9,0,0,1,534.25,771.14Zm-9.47-.69a4.34,4.34,0,0,0-.35-2q-.35-.65-1.58-.66-2.39,0-4.7,3.81a22.65,22.65,0,0,0-3,8.59A8.6,8.6,0,0,0,522,777,10.2,10.2,0,0,0,524.78,770.45Z"/><path class="cls-1" d="M587.53,790.47q0,1.31-5.08,5.2t-10.08,3.89a8,8,0,0,1-4.69-1.12,3.87,3.87,0,0,1-1.54-3.35,11.17,11.17,0,0,1,.27-2.39,23.53,23.53,0,0,1,1-3.23l5.3-12.55q.54-1.39.81-2.31a6.61,6.61,0,0,0,.27-1.85,3.75,3.75,0,0,0-.27-1.62q-.27-.54-1.35-.54-1.85,0-5.66,5.62a80.79,80.79,0,0,0-6.89,12.55l-3,8.55q-.23.62-2.62,1a27.44,27.44,0,0,1-3.39.35q-.93,0-3.7-.35t-2.62-1l7.62-23q.54-1.54.77-2.39a5.67,5.67,0,0,0,.23-1.46.94.94,0,0,0-.19-.62.62.62,0,0,0-.5-.23q-1.15,0-3,2.12t-2.46,2.12a1.65,1.65,0,0,1-1.23-.85,3,3,0,0,1-.62-1.08q0-1.39,4.28-5.27t8.82-3.89a7.35,7.35,0,0,1,5.24,1.81,6.3,6.3,0,0,1,1.93,4.81,8.88,8.88,0,0,1-.08,1.23,4.31,4.31,0,0,1-.31,1.08l-1.05,2.93a28.89,28.89,0,0,1,7.23-8.2q4.61-3.66,9-3.66a8,8,0,0,1,4.84,1.58A5.41,5.41,0,0,1,587,769a15.78,15.78,0,0,1-.42,3.43,17.94,17.94,0,0,1-1.12,3.43l-4.7,11.63q-.69,1.62-1,2.5a4.5,4.5,0,0,0-.31,1.27,1.23,1.23,0,0,0,.15.73.55.55,0,0,0,.46.19,4.84,4.84,0,0,0,3.35-1.81q1.73-1.81,2.27-1.81a1.66,1.66,0,0,1,1.23.81A2.56,2.56,0,0,1,587.53,790.47Z"/><path class="cls-1" d="M629,766.37a3.67,3.67,0,0,1-.57,1.77q-.57,1-1,1l-7.65-.23-6.25,18.56q-.31.92-.54,1.89a7.11,7.11,0,0,0-.23,1.58,2.15,2.15,0,0,0,.15.92c.1.21.33.31.69.31q1.91,0,4.44-2.5t3.06-2.5a2.43,2.43,0,0,1,1.49.85q.88.85.88,1.15,0,.46-1.73,2.23a28.5,28.5,0,0,1-4,3.39,47,47,0,0,1-5.35,3.43,11.12,11.12,0,0,1-5.35,1.35,7.69,7.69,0,0,1-5.27-1.73,6.18,6.18,0,0,1-2-4.89A8.07,8.07,0,0,1,600,791q.19-.77.58-2.08L607.31,769l-5.84.15q-.46,0-.65-.69a4.45,4.45,0,0,1-.19-1.16,3.54,3.54,0,0,1,.58-1.81q.58-1,1-1h6.71l2.84-8.32q.16-.62,3.05-1t3.59-.35a25.7,25.7,0,0,1,3.52.38q2.43.39,2.2.92l-2.84,8.32h7q.46,0,.65.69A4.48,4.48,0,0,1,629,766.37Z"/><path class="cls-1" d="M660.07,789.24q0,1.23-5.81,5.78t-10.51,4.54q-3.23,0-4.7-1.66a5.49,5.49,0,0,1-1.46-3.74,7.39,7.39,0,0,1,.38-2.42q.39-1.12.85-2.27l7.31-15.17a20.64,20.64,0,0,0,.89-2.12,4.61,4.61,0,0,0,.27-1.42,1.36,1.36,0,0,0-.23-.89.77.77,0,0,0-.62-.27q-1,0-3.89,3t-3.43,3a1.65,1.65,0,0,1-1.23-.85,3,3,0,0,1-.62-1.08,5.12,5.12,0,0,1,1.46-2.5,33.23,33.23,0,0,1,3.7-3.66,26.4,26.4,0,0,1,4.81-3.31,10.65,10.65,0,0,1,5-1.54,6.57,6.57,0,0,1,5.2,2,6.91,6.91,0,0,1,1.73,4.74,14.17,14.17,0,0,1-.23,2.46,8.7,8.7,0,0,1-1,2.7l-5.85,12.86a27.6,27.6,0,0,0-1,2.62,5.72,5.72,0,0,0-.31,1.39q0,.46.23.58a1,1,0,0,0,.46.12q1.69,0,4-2.42t2.89-2.43q.54,0,1.16.81A2.56,2.56,0,0,1,660.07,789.24ZM666,749.51a6.8,6.8,0,0,1-2,4.93,7,7,0,1,1,0-9.86A6.8,6.8,0,0,1,666,749.51Z"/><path class="cls-1" d="M706.88,770.68a4.79,4.79,0,0,1-1.66,3.62,6,6,0,0,1-4.27,1.54,3,3,0,0,1-2.69-1.31,10.81,10.81,0,0,1-1.31-2.93q-.54-1.62-1-3a1.87,1.87,0,0,0-1.89-1.35,3.57,3.57,0,0,0-2.31,1.35,18.27,18.27,0,0,0-2.77,4.12,28.78,28.78,0,0,0-2.31,6.85,40.37,40.37,0,0,0-.92,8.78q0,3.23,1.39,4.54a4.38,4.38,0,0,0,3.08,1.31q1.85,0,5-2.16a18.49,18.49,0,0,0,4.5-4.08q.15-.15.58.15a3.07,3.07,0,0,1,.65.62,5.64,5.64,0,0,1,.58.73q.35.5.19.73-1,2-5.81,5.66A17.44,17.44,0,0,1,685,799.56a12.2,12.2,0,0,1-8.35-3.35q-3.74-3.35-3.73-9.66a18.08,18.08,0,0,1,1.77-7.51,32,32,0,0,1,5.24-7.82,28.62,28.62,0,0,1,7.58-6,18.88,18.88,0,0,1,9.28-2.5,10.11,10.11,0,0,1,7.24,2.7Q706.88,768.14,706.88,770.68Z"/><circle class="cls-3" cx="449.84" cy="847.25" r="5.5"/><circle class="cls-3" cx="511.84" cy="847.25" r="5.5"/><circle class="cls-3" cx="569.84" cy="847.25" r="5.5"/></svg>